<?xml version="1.0" encoding="UTF-8"?>
<!-- Generator: visioncortex VTracer 0.6.12 -->
<svg version="1.1" xmlns="http://www.w3.org/2000/svg" viewBox="0 0 678 510" shape-rendering="geometricPrecision">
<path d="M0 0 C1.5 -0 1.5 -0 9.4 -0 C12.8 -0 16.2 -0 19.7 -0 C23.2 -0 26.8 -0 30.5 -0 C42.4 -0 54.2 -0 66.1 -0 C74.3 -0 82.5 -0 90.7 -0.1 C107.9 -0.1 125.2 -0.1 142.4 -0.1 C164.5 -0 186.7 -0.1 208.8 -0.1 C225.8 -0.1 242.7 -0.1 259.7 -0.1 C267.9 -0.1 276 -0.1 284.2 -0.1 C295.6 -0.1 307 -0.1 318.3 -0.1 C320 -0.1 320 -0.1 328.6 -0.1 C331.7 -0.1 334.8 -0.1 338 -0.1 C339.4 -0.1 339.4 -0.1 346.2 -0.1 C366.6 1 378.7 11.9 388.1 29.3 C390.9 41.6 390.2 53.6 390.1 66.2 C390.1 71.8 390.1 77.4 390.1 83 C390.1 91.8 390 100.7 389.9 109.6 C389.8 118.1 389.8 126.6 389.8 135.2 C389.8 137.8 389.7 140.5 389.7 143.2 C389.7 150.7 389.7 150.7 391.1 162.3 C393.1 162.8 393.1 162.8 403.1 165.3 C419.6 174.4 426.9 188.4 436.1 204.3 C439.1 208.9 442.1 213.6 445.1 218.3 C451.2 227.9 457.2 237.6 463.1 247.3 C468.3 255.5 473.5 263.8 478.8 271.9 C493 294 496.3 306.7 496.3 333 C496.3 335.8 496.3 338.6 496.3 341.4 C496.3 347.3 496.3 353.2 496.3 359 C496.3 368 496.3 377 496.4 386 C496.4 391.7 496.4 397.4 496.4 403.1 C496.4 405.8 496.4 408.5 496.4 411.3 C496.3 445.9 483.8 468.4 452.1 484.3 C438.9 488.2 426.8 488.8 413 488.8 C408.5 488.8 404.1 488.8 399.4 488.8 C394.5 488.8 389.6 488.8 384.6 488.8 C379.4 488.8 374.2 488.8 369 488.8 C354.8 488.8 340.7 488.8 326.5 488.8 C311.7 488.8 296.9 488.8 282.1 488.8 C257.2 488.8 232.4 488.8 207.5 488.8 C178.7 488.8 150 488.8 121.2 488.8 C96.5 488.8 71.9 488.8 47.2 488.8 C32.4 488.8 17.7 488.8 2.9 488.8 C-10.9 488.8 -24.8 488.8 -38.6 488.8 C-43.7 488.8 -48.8 488.8 -53.9 488.8 C-60.8 488.8 -67.8 488.8 -74.7 488.8 C-78.6 488.8 -82.5 488.8 -86.5 488.8 C-121.6 487.1 -144.6 468.9 -156.9 436.3 C-158.5 424.9 -158.1 413.5 -158.1 402.1 C-158.1 399.4 -158.1 396.7 -158.1 394 C-158.1 388.3 -158.2 382.6 -158.2 376.9 C-158.2 368.2 -158.2 359.5 -158.3 350.8 C-158.3 345.3 -158.3 339.7 -158.3 334.2 C-158.3 332.9 -158.3 332.9 -158.3 326.3 C-158.3 308.2 -155.8 295.3 -145.9 280.3 C-144.1 277.5 -142.3 274.8 -140.5 271.9 C-139.6 270.5 -139.6 270.5 -134.9 263.3 C-131.5 257.9 -128.2 252.6 -124.9 247.3 C-120.9 240.9 -116.9 234.6 -112.9 228.3 C-110.8 225 -108.7 221.7 -106.6 218.3 C-102.3 211.6 -98.1 204.9 -93.9 198.3 C-92.1 195.3 -90.3 192.3 -88.5 189.2 C-78.6 173.5 -70.3 167.1 -52.9 161.3 C-51.7 152 -51.4 143.8 -51.6 134.6 C-51.6 131.9 -51.6 129.3 -51.6 126.5 C-51.6 117.9 -51.7 109.3 -51.8 100.8 C-51.9 92.2 -51.9 83.7 -51.9 75.1 C-51.9 69.8 -52 64.4 -52.1 59.1 C-52.3 31.8 -47.2 16.4 -22.9 2.3 C-14.8 0.2 -8.3 0 0 0 Z " fill="var(--art-surface)" transform="translate(169.86544799804688,11.739303588867188)"/>
<path d="M0 0 C5.1 7.6 2.4 22.5 2.4 31.7 C2.4 34.6 2.4 37.5 2.4 40.4 C2.5 49.7 2.5 58.9 2.6 68.1 C2.6 77.4 2.7 86.6 2.7 95.9 C2.7 101.6 2.8 107.4 2.8 113.1 C2.9 132.9 2.9 132.9 4 134 C10.2 134.1 16.4 134.2 22.6 134.2 C26.4 134.2 30.2 134.2 34.2 134.2 C42.3 134.3 50.5 134.3 58.6 134.3 C62.4 134.4 66.3 134.4 70.2 134.4 C73.8 134.4 77.3 134.5 81 134.5 C107.4 136 115 155 126 176 C141.4 199.1 158.3 196.2 183.8 196.2 C187 196.2 190.2 196.3 193.5 196.3 C200.2 196.3 207 196.3 213.7 196.3 C224.1 196.3 234.4 196.4 244.7 196.4 C251.3 196.4 257.8 196.4 264.4 196.4 C267.5 196.4 270.6 196.5 273.8 196.5 C276.7 196.5 279.5 196.5 282.5 196.5 C285.1 196.5 287.6 196.5 290.2 196.5 C316.4 194.6 324.8 172.6 335 152 C346.3 135.1 359.8 134.9 378.4 134.7 C380.4 134.7 380.4 134.7 390.3 134.6 C394.4 134.5 398.5 134.5 402.8 134.4 C406.9 134.4 411 134.4 415.3 134.3 C425.5 134.2 435.8 134.1 446 134 C446 130.1 446 126.3 446 122.3 C446 108.1 446 93.8 445.9 79.6 C445.9 73.4 445.9 67.2 445.9 61.1 C445.9 52.2 445.9 43.3 445.9 34.5 C445.9 31.7 445.9 28.9 445.9 26.1 C445.9 6.6 445.9 6.6 447 1 C470.7 4 480 23.2 491 42 C494 46.7 497 51.3 500 56 C506.1 65.6 512 75.3 518 85 C523.1 93.3 528.3 101.5 533.6 109.7 C547.9 131.7 551.2 144.4 551.2 170.8 C551.2 173.5 551.2 176.3 551.2 179.2 C551.2 185 551.2 190.9 551.2 196.8 C551.2 205.8 551.2 214.8 551.2 223.8 C551.2 229.4 551.2 235.1 551.2 240.8 C551.2 243.5 551.2 246.2 551.3 249 C551.2 283.6 538.6 306.2 507 322 C493.8 325.9 481.6 326.5 467.9 326.5 C463.4 326.5 458.9 326.5 454.3 326.5 C449.4 326.5 444.4 326.5 439.5 326.5 C434.3 326.5 429.1 326.5 423.9 326.5 C409.7 326.6 395.6 326.5 381.4 326.5 C366.6 326.5 351.8 326.5 337 326.5 C312.1 326.6 287.2 326.5 262.4 326.5 C233.6 326.5 204.9 326.5 176.1 326.5 C151.4 326.5 126.7 326.5 102 326.5 C87.3 326.5 72.5 326.5 57.8 326.5 C43.9 326.6 30.1 326.5 16.2 326.5 C11.1 326.5 6 326.5 1 326.5 C-6 326.5 -12.9 326.5 -19.9 326.5 C-23.8 326.5 -27.6 326.5 -31.6 326.5 C-66.7 324.8 -89.8 306.6 -102 274 C-103.6 262.7 -103.2 251.3 -103.2 239.9 C-103.2 237.2 -103.3 234.5 -103.3 231.7 C-103.3 226 -103.3 220.3 -103.3 214.6 C-103.3 205.9 -103.4 197.2 -103.4 188.5 C-103.4 183 -103.4 177.5 -103.4 171.9 C-103.4 170.6 -103.4 170.6 -103.5 164 C-103.5 146 -100.9 133.1 -91 118 C-89.2 115.3 -87.5 112.5 -85.6 109.7 C-83.8 106.8 -81.9 104 -80 101 C-76.7 95.7 -73.3 90.3 -70 85 C-66 78.7 -62 72.3 -58 66 C-55.9 62.7 -53.8 59.4 -51.7 56 C-47.5 49.3 -43.2 42.7 -39 36 C-37.2 33 -35.5 30 -33.6 26.9 C-24.4 12.3 -16.6 5 0 0 Z " fill="var(--art-ink)" transform="translate(115,174)"/>
<path d="M0 0 C1.3 0.3 2.6 0.7 4 1 C4.4 6.4 4.6 11.9 4.7 17.4 C4.9 33.8 4.9 33.8 6 37 C8.3 37.7 10.6 38.3 13 39 C20 42.6 27 46.3 34 50 C40.3 53 46.7 56 53 59 C58.3 61.7 63.7 64.3 69 67 C72.7 68.8 76.5 70.5 80.3 72.4 C90.7 77.4 100.8 82.6 111 88 C114.1 89.5 117.3 91 120.5 92.5 C130.2 97.1 139.5 102 149 107 C152.1 108.5 155.3 110 158.5 111.5 C164.9 114.5 171.2 117.7 177.4 120.9 C208.2 137.2 226.9 142.6 259 126 C291 110 291 110 297.7 106.7 C305.3 102.8 313 99 320.6 95.2 C325.7 92.6 330.7 90.1 335.8 87.6 C338.3 86.3 340.9 85 343.5 83.7 C356.9 77 370.4 70.4 384 64 C387.1 62.3 390.3 60.7 393.5 59 C402.9 54.1 412.4 49.5 422 45 C424.4 43.7 426.9 42.3 429.4 40.9 C435 38 435 38 440 38 C442.9 29.3 441.5 18.4 441.7 9.3 C442 2 442 2 443 0 C443.7 0.2 443.7 0.2 447 1 C446.7 4 446.3 6.9 446 10 C445.9 19.3 445.8 28.6 445.8 38 C445.7 43.6 445.7 49.2 445.7 54.8 C445.6 63.7 445.6 72.6 445.5 81.4 C445.5 90 445.4 98.5 445.4 107.1 C445.4 109.8 445.4 112.5 445.4 115.2 C445.2 133.9 445.2 133.9 443 135 C436.9 135.1 430.7 135.2 424.6 135.2 C422.7 135.2 422.7 135.2 413.1 135.2 C405.1 135.3 397.1 135.3 389.1 135.3 C385.3 135.4 381.5 135.4 377.6 135.4 C375.9 135.4 375.9 135.4 367 135.5 C342.5 136.9 335 150.9 325 171 C309 198.4 293.3 197.2 264.2 197.2 C261.1 197.2 257.9 197.2 254.6 197.2 C247.8 197.2 241.1 197.2 234.3 197.2 C223.9 197.2 213.6 197.3 203.2 197.3 C196.7 197.3 190.1 197.3 183.6 197.3 C182 197.3 182 197.3 174.1 197.4 C171.2 197.4 168.4 197.4 165.4 197.4 C162.8 197.4 160.3 197.4 157.7 197.4 C133.1 196 124.6 178.1 114.6 158.2 C103.3 137.7 91.5 135.9 69.9 135.8 C67.9 135.7 67.9 135.7 58.2 135.7 C50 135.6 41.8 135.5 33.6 135.5 C29.7 135.4 25.8 135.4 21.9 135.4 C18.3 135.4 14.7 135.3 11.1 135.3 C3 135 3 135 1 133 C0.7 123.2 0.6 113.5 0.6 103.7 C0.6 102.2 0.6 102.2 0.5 94.8 C0.5 85.3 0.4 75.8 0.4 66.4 C0.3 60 0.3 53.6 0.3 47.2 C0.2 31.5 0.1 15.7 0 0 Z " fill="var(--art-accent-soft)" transform="translate(116,174)"/>
<path d="M0 0 C7.9 23.8 2.9 42.1 -15 60 C-37.3 73 -57 74.2 -78 58 C-92.9 41 -95.7 24.2 -88 3 C-66.5 -32.8 -23.1 -36.4 0 0 Z " fill="var(--art-accent)" transform="translate(256,103)"/>
<path d="M0 0 C4 -0 8 -0 12.1 -0 C16.5 -0 20.8 -0.1 25.3 -0.1 C29.8 -0.1 34.2 -0.1 38.8 -0.1 C48.2 -0.1 57.6 -0.1 67 -0.1 C79.1 -0.1 91.1 -0.2 103.2 -0.2 C114.7 -0.2 126.2 -0.2 137.7 -0.2 C142 -0.3 146.4 -0.3 150.9 -0.3 C154.9 -0.3 158.9 -0.3 163 -0.3 C164.8 -0.3 164.8 -0.3 173.8 -0.3 C184.2 0.3 187.6 2.2 194.2 10.2 C195.8 21.5 192.7 25.3 183.2 31.2 C176.8 31.7 170.4 31.9 164 31.9 C160.1 31.9 156.1 31.9 152 32 C147.7 32 143.4 32 138.9 32 C134.5 32 130.1 32 125.6 32.1 C116.2 32.1 106.9 32.1 97.5 32.1 C85.6 32.2 73.6 32.2 61.6 32.3 C50.2 32.4 38.8 32.4 27.4 32.4 C25.2 32.4 25.2 32.4 14.3 32.5 C12.3 32.5 12.3 32.5 2.2 32.5 C-1.3 32.5 -4.8 32.5 -8.4 32.5 C-20.1 32 -25.7 29.3 -31.8 19.2 C-31.8 10.7 -29.7 6.3 -22.8 1.2 C-15.4 -0.7 -7.6 0 0 0 Z " fill="var(--art-ink)" transform="translate(320.794189453125,80.822998046875)"/>
<path d="M0 0 C1.5 -0 1.5 -0 9 -0 C15.2 -0 21.5 -0 27.8 -0.1 C37.4 -0.1 47 -0.1 56.6 -0.2 C62.7 -0.2 68.7 -0.2 74.8 -0.2 C76.3 -0.2 76.3 -0.2 83.6 -0.2 C106.2 -0.2 106.2 -0.2 115.6 9.2 C116.9 21.1 115.6 23.5 106.6 31.2 C94.5 32.7 82.5 32.4 70.3 32.5 C67.5 32.5 64.7 32.5 61.9 32.5 C56 32.5 50.1 32.5 44.2 32.5 C35.1 32.6 26.1 32.6 17.1 32.6 C11.3 32.6 5.6 32.7 -0.1 32.7 C-2.8 32.7 -5.5 32.7 -8.3 32.7 C-33.1 32.7 -33.1 32.7 -42.4 20.2 C-42.4 10.2 -40.8 6.8 -32.4 1.2 C-22.9 -1.9 -10.1 0 0 0 Z " fill="var(--art-ink)" transform="translate(331.39453125,134.76171875)"/>
<path d="M0 0 C3 1 3 1 3.4 13.1 C3.5 18.7 3.5 24.2 3.5 29.8 C3.5 32.7 3.5 35.6 3.6 38.6 C3.6 47.9 3.7 57.2 3.7 66.6 C3.7 72.9 3.8 79.2 3.8 85.5 C3.9 101 3.9 116.5 4 132 C6.5 132 9.1 132 11.7 132 C23.1 132.1 34.5 132.2 45.9 132.3 C49.9 132.3 53.9 132.4 58 132.4 C61.8 132.4 65.6 132.5 69.5 132.5 C71.3 132.5 71.3 132.5 80.2 132.6 C107.1 133.9 114.9 152.9 126 174 C136.2 191 147.2 194.4 166.2 194.4 C167.6 194.4 167.6 194.4 174.7 194.4 C177.8 194.4 180.8 194.4 183.9 194.4 C185.5 194.4 185.5 194.4 193.4 194.4 C200 194.5 206.7 194.5 213.3 194.4 C223.4 194.4 233.5 194.5 243.7 194.5 C250.1 194.5 256.5 194.5 262.9 194.5 C266 194.5 269 194.5 272.1 194.5 C274.9 194.5 277.8 194.5 280.7 194.5 C281.9 194.5 281.9 194.5 288.2 194.5 C312.5 192.7 319.2 176.7 329 157 C341.5 136.2 353.8 132.8 377.2 132.6 C379 132.6 379 132.6 388.6 132.5 C392.5 132.4 396.4 132.4 400.5 132.4 C404.5 132.3 408.4 132.3 412.5 132.3 C422.4 132.2 432.2 132.1 442 132 C442 128.1 442.1 124.2 442.1 120.2 C442.2 105.8 442.3 91.4 442.4 77.1 C442.4 70.8 442.5 64.6 442.5 58.3 C442.6 49.4 442.6 40.5 442.7 31.5 C442.7 28.7 442.7 25.9 442.7 23 C442.9 3.3 442.9 3.3 444 0 C445 0.3 446 0.7 447 1 C446.7 4 446.3 6.9 446 10 C445.9 19.3 445.8 28.6 445.8 38 C445.7 43.6 445.7 49.2 445.7 54.8 C445.6 63.7 445.6 72.6 445.5 81.4 C445.5 90 445.4 98.5 445.4 107.1 C445.4 109.8 445.4 112.5 445.4 115.2 C445.2 133.9 445.2 133.9 443 135 C436.9 135.1 430.7 135.2 424.6 135.2 C422.7 135.2 422.7 135.2 413.1 135.2 C405.1 135.3 397.1 135.3 389.1 135.3 C385.3 135.4 381.5 135.4 377.6 135.4 C375.9 135.4 375.9 135.4 367 135.5 C342.5 136.9 335 150.9 325 171 C309 198.4 293.3 197.2 264.2 197.2 C261.1 197.2 257.9 197.2 254.6 197.2 C247.8 197.2 241.1 197.2 234.3 197.2 C223.9 197.2 213.6 197.3 203.2 197.3 C196.7 197.3 190.1 197.3 183.6 197.3 C182 197.3 182 197.3 174.1 197.4 C171.2 197.4 168.4 197.4 165.4 197.4 C162.8 197.4 160.3 197.4 157.7 197.4 C133.1 196 124.6 178.1 114.6 158.2 C103.3 137.7 91.5 135.9 69.9 135.8 C67.9 135.7 67.9 135.7 58.2 135.7 C50 135.6 41.8 135.5 33.6 135.5 C29.7 135.4 25.8 135.4 21.9 135.4 C18.3 135.4 14.7 135.3 11.1 135.3 C3 135 3 135 1 133 C0.7 123.2 0.6 113.5 0.6 103.7 C0.6 102.2 0.6 102.2 0.5 94.8 C0.5 85.3 0.4 75.8 0.4 66.4 C0.3 60 0.3 53.6 0.3 47.2 C0.2 31.5 0.1 15.7 0 0 Z " fill="var(--art-muted)" transform="translate(116,174)"/>
<path d="M0 0 C4 -0 8 -0 12.1 -0 C16.5 -0 20.8 -0.1 25.3 -0.1 C29.8 -0.1 34.2 -0.1 38.8 -0.1 C48.2 -0.1 57.6 -0.1 67 -0.1 C79.1 -0.1 91.1 -0.2 103.2 -0.2 C114.7 -0.2 126.2 -0.2 137.7 -0.2 C142 -0.3 146.4 -0.3 150.9 -0.3 C154.9 -0.3 158.9 -0.3 163 -0.3 C164.8 -0.3 164.8 -0.3 173.8 -0.3 C184.2 0.3 187.6 2.2 194.2 10.2 C195.8 21.5 192.7 25.3 183.2 31.2 C176.8 31.7 170.4 31.9 164 31.9 C160.1 31.9 156.1 31.9 152 32 C147.7 32 143.4 32 138.9 32 C134.5 32 130.1 32 125.6 32.1 C116.2 32.1 106.9 32.1 97.5 32.1 C85.6 32.2 73.6 32.2 61.6 32.3 C50.2 32.4 38.8 32.4 27.4 32.4 C25.2 32.4 25.2 32.4 14.3 32.5 C12.3 32.5 12.3 32.5 2.2 32.5 C-1.3 32.5 -4.8 32.5 -8.4 32.5 C-20.1 32 -25.7 29.3 -31.8 19.2 C-31.8 10.7 -29.7 6.3 -22.8 1.2 C-15.4 -0.7 -7.6 0 0 0 Z M-28.8 10.2 C-29.9 19.3 -29.2 21.8 -22.8 28.2 C-16.1 30.4 -7.9 29.3 -1 29.3 C1 29.3 1 29.3 11.2 29.4 C15.6 29.4 20 29.4 24.5 29.4 C28.9 29.4 33.4 29.4 38 29.4 C47.5 29.4 56.9 29.4 66.4 29.4 C78.6 29.4 90.7 29.4 102.9 29.5 C114.4 29.5 126 29.5 137.5 29.5 C141.9 29.5 146.3 29.5 150.8 29.5 C152.8 29.5 152.8 29.5 163 29.5 C166.6 29.5 170.2 29.5 173.8 29.5 C181.8 29.2 189.4 28.6 192.2 20.2 C192.2 9 191.9 7.7 182.2 2.2 C175.8 1.8 169.4 1.7 163.1 1.7 C159.1 1.7 155 1.7 150.9 1.6 C146.6 1.7 142.2 1.7 137.8 1.7 C135.5 1.7 135.5 1.7 124.3 1.7 C114.9 1.7 105.5 1.7 96.1 1.7 C84.1 1.7 72 1.7 60 1.7 C48.5 1.7 37 1.7 25.5 1.7 C21.2 1.7 16.8 1.7 12.4 1.7 C8.4 1.7 4.3 1.8 0.2 1.8 C-3.3 1.8 -6.8 1.8 -10.5 1.8 C-19.8 2.2 -23 2.9 -28.8 10.2 Z " fill="var(--art-muted)" transform="translate(320.794189453125,80.822998046875)"/>
</svg>
